<?xml version="1.0" encoding="UTF-8" standalone="no"?>
<svg
   data-name="Layer 1"
   width="719.76946"
   height="687.25"
   viewBox="0 0 719.76946 687.25"
   version="1.1"
   id="svg30"
   sodipodi:docname="nonton.svg"
   inkscape:version="1.3 (0e150ed6c4, 2023-07-21)"
   xmlns:inkscape="http://www.inkscape.org/namespaces/inkscape"
   xmlns:sodipodi="http://sodipodi.sourceforge.net/DTD/sodipodi-0.dtd"
   xmlns="http://www.w3.org/2000/svg"
   xmlns:svg="http://www.w3.org/2000/svg">
  <defs
     id="defs30" />
  <sodipodi:namedview
     id="namedview30"
     pagecolor="#505050"
     bordercolor="#eeeeee"
     borderopacity="1"
     inkscape:showpageshadow="0"
     inkscape:pageopacity="0"
     inkscape:pagecheckerboard="0"
     inkscape:deskcolor="#505050"
     inkscape:zoom="0.63770418"
     inkscape:cx="361.45286"
     inkscape:cy="430.45037"
     inkscape:window-width="1366"
     inkscape:window-height="745"
     inkscape:window-x="-8"
     inkscape:window-y="-8"
     inkscape:window-maximized="1"
     inkscape:current-layer="svg30" />
  <title
     id="title1">home_cinema</title>
  <path
     d="m 647.33984,227.0481 v -35.2243 h -5.47713 v 35.2243 a 7.3028322,7.3028322 0 1 0 5.47713,0 z"
     fill="#e6e6e6"
     id="path1"
     style="stroke-width:1" />
  <path
     d="M 660.1198,582.52533 H 622.69278 V 127.92402 h -14.60566 v 454.60131 h -37.42707 a 33.775535,33.775535 0 0 0 -33.77555,33.77554 v 5e-5 h 157.01089 v -5e-5 A 33.775544,33.775544 0 0 0 660.1198,582.52533 Z"
     fill="#e6e6e6"
     id="path2"
     style="stroke-width:1" />
  <path
     d="M 536.96028,195.47522 H 693.81964 L 684.22752,75.580667 A 16.61199,16.61199 0 0 0 667.75424,60.372821 H 563.02565 a 16.61199,16.61199 0 0 0 -16.47328,15.207846 z"
     fill="#00fff9"
     id="path3"
     style="stroke-width:1" />
  <path
     d="m 92.62418,478.03605 h 478.7725 v -48.87992 c 0,-131.99756 -107.38869,-239.38625 -239.38625,-239.38625 -131.99755,0 -239.38625,107.38869 -239.38625,239.38625 z"
     fill="#3f3d56"
     id="path4"
     style="stroke-width:1" />
  <path
     d="m 92.62418,478.03605 h 478.7725 v -48.87992 c 0,-131.99756 -107.38869,-239.38625 -239.38625,-239.38625 -131.99755,0 -239.38625,107.38869 -239.38625,239.38625 z"
     opacity="0.2"
     id="path5"
     style="stroke-width:1" />
  <path
     d="M 154.67508,494.95601 H 523.13242 A 74.030107,74.030107 0 0 0 449.1969,422.26285 H 228.61061 a 74.030107,74.030107 0 0 0 -73.93553,72.69316 z"
     fill="#00fff9"
     id="path6"
     style="stroke-width:1" />
  <circle
     cx="110.79748"
     cy="413.4895"
     r="73.946533"
     fill="#3f3d56"
     id="circle6"
     style="stroke-width:1" />
  <circle
     cx="559.49005"
     cy="413.4895"
     r="73.946533"
     fill="#3f3d56"
     id="circle7"
     style="stroke-width:1" />
  <path
     d="m 503.7168,451.08943 v 27.57328 H 162.18406 V 451.08943 H 85.730863 v 134.39263 a 31.047078,31.047078 0 0 0 31.047077,31.04708 H 549.12282 A 31.047078,31.047078 0 0 0 580.17,585.48206 V 451.08943 Z"
     fill="#3f3d56"
     id="path7"
     style="stroke-width:1" />
  <circle
     cx="110.79748"
     cy="413.4895"
     r="15.039974"
     opacity="0.2"
     id="circle8"
     style="stroke-width:1" />
  <circle
     cx="559.49005"
     cy="413.4895"
     r="15.039974"
     opacity="0.2"
     id="circle9"
     style="stroke-width:1" />
  <path
     d="m 359.25082,181.32277 c 0,0 1.47857,28.09276 11.82853,34.00702 10.34997,5.91426 0,45.83556 0,45.83556 l -48.79269,1.47858 -2.95714,-47.31414 c 0,0 5.91427,-19.22136 2.95714,-28.09276 -2.95714,-8.8714 36.96416,-5.91426 36.96416,-5.91426 z"
     fill="#ffb8b8"
     id="path9"
     style="stroke-width:1" />
  <polygon
     points="413.107,560.102 393.671,582.778 424.446,611.933 440.643,579.539 "
     fill="#ffb8b8"
     id="polygon9"
     transform="matrix(0.91285403,0,0,0.91285403,36.850942,60.37282)"
     style="stroke-width:1.09547" />
  <polygon
     points="275.431,560.102 294.868,582.778 264.093,611.933 247.896,579.539 "
     fill="#ffb8b8"
     id="polygon10"
     transform="matrix(0.91285403,0,0,0.91285403,36.850942,60.37282)"
     style="stroke-width:1.09547" />
  <path
     d="m 404.3471,375.75425 c 0,0 106.45678,35.48559 100.54251,69.49262 -5.91428,34.00702 -51.74983,153.7709 -51.74983,153.7709 0,0 -25.13562,0 -44.35699,-26.6142 l 13.3071,-29.57132 c 0,0 -5.91427,-16.26424 4.4357,-19.22136 10.34996,-2.95713 16.26423,-54.70696 16.26423,-54.70696 0,0 -75.40689,-5.91427 -91.67111,-34.00703 l -29.57134,-70.97119 z"
     fill="#2f2e41"
     id="path10"
     style="stroke-width:1" />
  <path
     d="m 297.89032,375.75425 c 0,0 -106.45679,35.48559 -100.54254,69.49262 5.91424,34.00702 51.74982,153.7709 51.74982,153.7709 0,0 25.13564,0 44.35699,-26.6142 L 280.1475,542.83225 c 0,0 5.91426,-16.26424 -4.4357,-19.22136 -10.34997,-2.95713 -16.26423,-54.70696 -16.26423,-54.70696 0,0 75.40689,-5.91427 91.67112,-34.00703 l 29.57132,-70.97119 z"
     fill="#2f2e41"
     id="path11"
     style="stroke-width:1" />
  <path
     d="m 419.13276,607.88917 c 0,0 14.78566,-13.3071 16.26423,-2.95714 1.47856,10.34996 -1.47857,51.74983 -1.47857,51.74983 0,0 14.78567,31.04989 -7.39283,31.04989 -22.1785,0 -32.52846,-23.65706 -29.57132,-47.31413 2.95713,-23.65708 -10.34994,-32.52846 -10.34994,-32.52846 0,0 -16.26423,-32.52846 0,-35.4856 16.26423,-2.95713 22.17849,4.43571 22.17849,4.43571 0,0 -5.91429,26.6142 10.34994,31.0499 z"
     fill="#2f2e41"
     id="path12"
     style="stroke-width:1" />
  <path
     d="m 283.10465,607.88917 c 0,0 -14.78567,-13.3071 -16.26423,-2.95714 -1.47857,10.34996 1.47856,51.74983 1.47856,51.74983 0,0 -14.78566,31.04989 7.39283,31.04989 22.1785,0 32.52847,-23.65706 29.57134,-47.31413 -2.95714,-23.65708 10.34993,-32.52846 10.34993,-32.52846 0,0 16.26423,-32.52846 0,-35.4856 -16.26422,-2.95713 -22.1785,4.43571 -22.1785,4.43571 0,0 5.9143,26.6142 -10.34993,31.0499 z"
     fill="#2f2e41"
     id="path13"
     style="stroke-width:1" />
  <circle
     cx="336.33304"
     cy="164.31924"
     r="34.007027"
     fill="#ffb8b8"
     id="circle13"
     style="stroke-width:1" />
  <path
     d="m 341.50802,222.72262 -20.69993,-16.26423 -50.27125,23.65706 -1.47857,134.54955 c 0,0 -31.04989,14.78566 -22.17849,34.00702 0,0 26.61419,5.91427 38.44272,17.7428 11.82852,11.82853 78.36401,-4.43569 106.45678,-13.30709 28.09276,-8.8714 35.48559,-19.22137 35.48559,-19.22137 l -28.09276,-39.9213 16.26423,-102.02107 -50.26564,-33.79483 z"
     fill="#e6e6e6"
     id="path14"
     style="stroke-width:1" />
  <path
     d="m 377.67699,141.17329 a 29.871569,29.871569 0 0 1 -2.0274,-3.14652 c -1.05445,-2.56815 0.61112,-5.59461 -0.94519,-7.99271 -1.58873,-2.44805 -5.62199,-2.96432 -8.36614,-4.62743 -4.22732,-2.56199 -4.99572,-7.58922 -8.95643,-10.41248 -2.85371,-2.03418 -6.92325,-2.58252 -10.73669,-2.46647 -3.81345,0.11604 -7.57592,0.80549 -11.39094,0.88115 a 34.343075,34.343075 0 0 1 -14.9499,-3.05725 l 2.81437,5.50526 a 28.094087,28.094087 0 0 1 -8.8346,-3.58093 c -1.24477,1.54396 1.03262,3.88743 -0.37942,5.33563 a 4.5308871,4.5308871 0 0 1 -1.99398,0.92455 47.692543,47.692543 0 0 0 -15.09665,7.36515 7.5859904,7.5859904 0 0 0 -2.54037,2.68186 c -0.73357,1.6257 -0.0832,3.42124 -0.13867,5.14976 -0.10091,3.14085 -2.49881,5.8797 -4.20029,8.70912 -1.70148,2.82943 -2.6202,6.4977 -0.0967,8.89912 a 22.94433,22.94433 0 0 1 1.76336,1.55489 c 2.52846,2.98252 -1.9473,7.3503 0.20996,10.51525 0.93665,1.37414 2.8565,2.06958 4.52513,2.8814 a 18.081018,18.081018 0 0 1 7.73571,6.89462 l -1.29694,-9.51953 a 1.5703189,1.5703189 0 0 1 0.25825,-1.38662 c 0.62815,-0.64025 1.94386,-0.38504 2.81083,-0.80901 0.954,-0.46654 1.02605,-1.53671 0.98814,-2.43302 l -0.29197,-6.91142 c -0.13128,-3.10788 -0.1676,-3.52059 2.12127,-6.0292 1.59908,-1.75262 4.1146,-2.81007 6.64131,-3.58774 5.77408,-1.77713 11.98438,-2.39184 18.12277,-2.99255 7.12848,-0.69761 15.15525,-4.15646 20.69123,-0.48404 4.53171,3.00621 6.03842,7.94754 8.22191,12.32992 1.96264,3.93896 6.99976,15.53677 11.19308,9.2588 2.63344,-3.94262 6.6613,-15.05975 4.14494,-19.44956 z"
     fill="#2f2e41"
     id="path15"
     style="stroke-width:1" />
  <path
     d="m 342.17116,154.45429 a 0.52910845,0.52910845 0 0 0 -0.52864,0.52819 v 14.23794 a 0.52910845,0.52910845 0 0 0 0.52864,0.52819 h 24.50977 a 0.52910845,0.52910845 0 0 0 0.52864,-0.52819 v -14.23795 a 0.52910845,0.52910845 0 0 0 -0.52864,-0.52819 z"
     fill="#3f3d56"
     id="path16"
     style="stroke-width:1" />
  <path
     d="m 344.91014,155.70991 a 0.98574542,0.98574542 0 0 0 -0.98461,0.98461 v 10.81384 a 0.98574542,0.98574542 0 0 0 0.98461,0.98462 h 19.03176 a 0.98574542,0.98574542 0 0 0 0.98461,-0.98462 v -10.81384 a 0.98574542,0.98574542 0 0 0 -0.98461,-0.98461 z"
     fill="#ff6584"
     id="path17"
     style="stroke-width:1" />
  <rect
     x="329.6795"
     y="159.14427"
     width="12.767103"
     height="2.9571359"
     fill="#3f3d56"
     id="rect17"
     style="stroke-width:1" />
  <path
     d="m 307.46353,154.45429 a 0.52901717,0.52901717 0 0 0 -0.52818,0.52819 v 14.23794 a 0.52901717,0.52901717 0 0 0 0.52818,0.52819 h 24.51023 a 0.5290263,0.5290263 0 0 0 0.52819,-0.52819 v -14.23795 a 0.5290263,0.5290263 0 0 0 -0.52819,-0.52819 z"
     fill="#3f3d56"
     id="path18"
     style="stroke-width:1" />
  <path
     d="m 310.20301,155.70991 a 0.98588235,0.98588235 0 0 0 -0.98506,0.98461 v 10.81384 a 0.98588235,0.98588235 0 0 0 0.98506,0.98462 h 19.03127 a 0.98588235,0.98588235 0 0 0 0.98506,-0.98462 v -10.81384 a 0.98588235,0.98588235 0 0 0 -0.98506,-0.98461 z"
     fill="#00fff9"
     id="path19"
     style="stroke-width:1" />
  <path
     d="m 294.06531,332.17511 h 84.89542 a 12.779956,12.779956 0 0 1 12.77996,12.77995 v 0 H 281.28535 v 0 a 12.779956,12.779956 0 0 1 12.77996,-12.77995 z"
     fill="#3f3d56"
     id="path20"
     style="stroke-width:1" />
  <path
     d="m 384.8943,331.26225 a 4.5288788,4.5288788 0 0 0 -1.45981,0.24856 2.7336509,2.7336509 0 0 0 -5.38659,0.6643 c 0,0.0136 0.004,0.0263 0.004,0.0399 a 4.6937402,4.6937402 0 0 0 -1.00707,0.20866 2.7487222,2.7487222 0 0 0 -1.35376,-1.74446 4.5797887,4.5797887 0 0 0 1.97548,-2.16218 3.6701661,3.6701661 0 1 0 -0.0748,-7.29615 4.5288788,4.5288788 0 0 0 -1.45982,0.24855 2.7295522,2.7295522 0 1 0 -5.248,1.48344 c -0.10914,0.0759 -0.21094,0.16124 -0.31295,0.2461 a 2.5920581,2.5920581 0 0 0 -1.86672,-0.62134 4.5464147,4.5464147 0 0 0 -8.83926,1.41552 4.6717405,4.6717405 0 0 0 -1.07733,0.21484 2.7384708,2.7384708 0 0 0 -0.15745,-0.45052 3.430332,3.430332 0 0 0 1.16085,-2.53659 3.8998311,3.8998311 0 0 0 -4.10785,-3.65142 4.5288788,4.5288788 0 0 0 -1.45982,0.24855 2.7295522,2.7295522 0 1 0 -5.24799,1.48345 4.5524578,4.5524578 0 0 0 -1.95101,3.53201 c -0.0386,0.0343 -0.0829,0.0621 -0.11946,0.0985 a 3.2527545,3.2527545 0 0 0 0.10614,-0.79825 3.8998311,3.8998311 0 0 0 -4.10784,-3.65141 4.5288788,4.5288788 0 0 0 -1.45982,0.24855 2.7295522,2.7295522 0 1 0 -5.248,1.48344 4.5523483,4.5523483 0 0 0 0,7.49026 2.4896177,2.4896177 0 0 0 0,1.63828 4.6088905,4.6088905 0 0 0 -1.16786,1.17924 2.7215191,2.7215191 0 0 0 -5.33254,0.46088 4.3488366,4.3488366 0 0 0 -1.17361,-0.47415 4.5887438,4.5887438 0 0 0 1.67656,-1.99179 3.6701661,3.6701661 0 1 0 -0.0748,-7.29615 4.5288788,4.5288788 0 0 0 -1.45982,0.24855 2.7295522,2.7295522 0 1 0 -5.248,1.48344 c -0.0585,0.0407 -0.11131,0.0886 -0.16787,0.13199 -0.14241,-0.0132 -0.28086,-0.0383 -0.42717,-0.0383 a 4.5288788,4.5288788 0 0 0 -1.45982,0.24856 c -0.0172,-0.0688 -0.0456,-0.13278 -0.068,-0.19947 a 2.6900804,2.6900804 0 0 0 -2.79538,-3.25661 4.5598885,4.5598885 0 1 0 -7.16656,5.08043 4.7225225,4.7225225 0 0 0 -0.92432,0.20135 2.713915,2.713915 0 0 0 -4.34687,-1.46823 4.2683137,4.2683137 0 0 0 -3.32188,-1.51888 4.5288788,4.5288788 0 0 0 -1.45981,0.24855 2.7295522,2.7295522 0 1 0 -5.248,1.48344 4.5542927,4.5542927 0 0 0 -1.96433,3.74513 c 0,0.0142 0.004,0.0271 0.005,0.0413 a 3.7862812,3.7862812 0 0 0 -1.92043,0.20731 2.7295522,2.7295522 0 1 0 -5.248,1.48345 4.545584,4.545584 0 0 0 3.59259,8.18811 4.5480031,4.5480031 0 0 0 8.59361,1.16747 28.453724,28.453724 0 0 0 9.86109,-0.44434 4.5479301,4.5479301 0 0 0 8.46946,0.30433 4.4654263,4.4654263 0 0 0 1.91463,-0.47377 4.5433475,4.5433475 0 0 0 8.12677,-0.43909 4.4216367,4.4216367 0 0 1 4.94598,2.74525 7.1196133,7.1196133 0 0 1 5.24327,-2.9017 4.4499443,4.4499443 0 0 0 4.9427,-1.88755 4.5621888,4.5621888 0 0 0 8.60225,2.95686 4.4654263,4.4654263 0 0 0 1.91463,-0.47377 4.5433475,4.5433475 0 0 0 8.12677,-0.43909 4.4654263,4.4654263 0 0 0 1.91462,-0.47377 4.5167378,4.5167378 0 0 0 6.76651,1.31151 4.5448629,4.5448629 0 0 0 8.12999,1.88527 4.5330779,4.5330779 0 0 0 6.92309,-1.81019 3.6701661,3.6701661 0 1 0 -0.0748,-7.29615 z m -81.58923,-1.88398 c -0.005,0.022 -0.008,0.0446 -0.0126,0.0667 -0.0333,-9.1e-4 -0.0649,-0.008 -0.0986,-0.008 a 2.7185706,2.7185706 0 0 0 -0.40673,0.041 c 0.007,-0.0164 0.0178,-0.0311 0.025,-0.0476 a 4.5456479,4.5456479 0 0 0 0.49294,-0.0516 z m 38.13813,-1.51888 c -0.0133,-0.0531 -0.0361,-0.10202 -0.0524,-0.15389 a 4.5864525,4.5864525 0 0 0 1.58697,-1.92703 4.2733983,4.2733983 0 0 0 3.17381,-1.43716 2.7469238,2.7469238 0 0 0 -0.0536,0.53098 2.7086296,2.7086296 0 0 0 0.13862,0.81914 4.5810393,4.5810393 0 0 0 -1.69689,2.22463 4.4795299,4.4795299 0 0 0 -3.09654,-0.0566 z m 27.34032,0.34037 c -0.002,-0.056 0.005,-0.11361 0.002,-0.16916 a 2.7256178,2.7256178 0 0 0 0.3479,-0.0236 4.5242324,4.5242324 0 0 0 0.86961,1.61092 c -0.0862,0.0242 -0.17689,0.0387 -0.2608,0.0672 a 2.7529395,2.7529395 0 0 0 -0.95816,-1.48534 z"
     fill="#f9a825"
     id="path21"
     style="stroke-width:1" />
  <path
     d="m 290.4808,336.73938 a 9.5311089,9.5311089 0 0 0 -9.51811,10.04322 l 6.18138,85.00062 a 9.5307255,9.5307255 0 0 0 9.5181,9.02156 h 79.70176 a 9.5307255,9.5307255 0 0 0 9.51811,-9.02156 l 6.18137,-85.00062 a 9.5311089,9.5311089 0 0 0 -9.5181,-10.04322 z"
     fill="#3f3d56"
     id="path22"
     style="stroke-width:1" />
  <rect
     x="294.97821"
     y="336.73938"
     width="5.4771242"
     height="104.06536"
     fill="#00fff9"
     id="rect22"
     style="stroke-width:1" />
  <rect
     x="310.49673"
     y="336.73938"
     width="5.4771242"
     height="104.06536"
     fill="#00fff9"
     id="rect23"
     style="stroke-width:1" />
  <rect
     x="326.01523"
     y="336.73938"
     width="5.4771242"
     height="104.06536"
     fill="#00fff9"
     id="rect24"
     style="stroke-width:1" />
  <rect
     x="341.53375"
     y="336.73938"
     width="5.4771242"
     height="104.06536"
     fill="#00fff9"
     id="rect25"
     style="stroke-width:1" />
  <rect
     x="357.05228"
     y="336.73938"
     width="5.4771242"
     height="104.06536"
     fill="#00fff9"
     id="rect26"
     style="stroke-width:1" />
  <rect
     x="372.5708"
     y="336.73938"
     width="5.4771242"
     height="104.06536"
     fill="#00fff9"
     id="rect27"
     style="stroke-width:1" />
  <path
     d="m 372.55791,388.32202 -17.74279,10.34994 c 0,0 -42.87843,35.48559 -13.3071,41.39986 29.57133,5.91426 36.9642,-25.13563 36.9642,-25.13563 l 10.34994,-11.82853 z"
     fill="#ffb8b8"
     id="path27"
     style="stroke-width:1" />
  <path
     d="m 288.27963,380.92923 17.7428,10.34994 c 0,0 42.87842,35.48559 13.30709,41.39985 -29.57133,5.91426 -36.9642,-25.13563 -36.9642,-25.13563 l -10.34993,-11.82853 z"
     fill="#ffb8b8"
     id="path28"
     style="stroke-width:1" />
  <path
     d="m 396.21498,240.46542 19.22136,1.47857 c 0,0 14.78567,13.30709 13.3071,31.04989 0,0 13.30709,38.44273 10.34994,54.70696 0,0 2.95713,26.61419 -1.47857,36.96419 -4.43569,10.35001 -41.39983,50.27125 -41.39983,50.27125 0,0 -34.00702,-26.6142 -32.52847,-28.09276 l 44.357,-44.357 -22.17849,-29.57132 z"
     fill="#e6e6e6"
     id="path29"
     style="stroke-width:1" />
  <path
     d="m 270.53684,230.11545 -0.73929,0.73929 c 0,0 -33.26774,14.04638 -31.78917,31.78918 0,0 -13.3071,38.44272 -10.34994,54.70695 0,0 -2.95714,26.61419 1.47857,36.9642 4.4357,10.35 41.39985,50.27125 41.39985,50.27125 0,0 34.00703,-26.61419 32.52846,-28.09275 l -44.35699,-44.35699 22.1785,-29.57133 z"
     fill="#e6e6e6"
     id="path30"
     style="stroke-width:1" />
</svg>
